<?xml version="1.0" standalone="no"?>
<!DOCTYPE svg PUBLIC "-//W3C//DTD SVG 20010904//EN"
 "http://www.w3.org/TR/2001/REC-SVG-20010904/DTD/svg10.dtd">
<svg version="1.0" xmlns="http://www.w3.org/2000/svg"
 width="566.000000pt" height="273.000000pt" viewBox="0 0 566.000000 273.000000"
 preserveAspectRatio="xMidYMid meet">
<metadata>
Created by potrace 1.16, written by Peter Selinger 2001-2019
</metadata>
<g transform="translate(0.000000,273.000000) scale(0.100000,-0.100000)"
fill="#000000" stroke="none">
<path d="M1156 2544 c-481 -87 -867 -464 -967 -944 -30 -146 -30 -344 1 -490
21 -102 87 -290 101 -290 4 0 81 143 170 318 89 174 177 345 197 380 l35 64
93 -182 94 -181 -185 -357 -185 -357 48 -44 c157 -146 384 -257 606 -296 115
-20 298 -19 416 1 619 106 1055 679 992 1302 -30 296 -144 537 -351 742 -181
180 -397 292 -645 335 -109 19 -313 18 -420 -1z m285 -1234 c228 -442 416
-808 417 -812 2 -4 -81 -8 -185 -8 l-188 0 -72 138 -71 137 -236 3 c-130 1
-236 5 -236 7 0 3 36 77 80 165 l80 159 70 3 69 3 -179 347 c-99 190 -180 352
-180 358 0 7 41 91 91 187 l91 174 17 -28 c10 -15 204 -390 432 -833z"/>
<path d="M2826 1838 c-3 -13 -28 -261 -56 -553 -28 -291 -52 -542 -55 -557
l-4 -28 98 0 c114 0 111 -3 111 98 0 37 3 84 6 105 6 34 9 37 39 37 31 0 32
-1 39 -52 3 -29 6 -83 6 -120 l0 -68 104 0 105 0 -5 33 c-2 17 -27 259 -54
537 -28 278 -53 524 -56 548 l-6 42 -134 0 c-130 0 -134 -1 -138 -22z"/>
<path d="M3290 1280 l0 -580 160 0 160 0 0 80 0 80 -60 0 -60 0 0 500 0 500
-100 0 -100 0 0 -580z"/>
<path d="M3950 1280 l0 -582 183 4 c216 4 234 10 264 85 15 41 18 78 18 248 0
214 -6 244 -55 278 -20 14 -20 14 4 30 40 27 51 77 51 242 0 124 -3 158 -18
191 -32 71 -56 79 -264 82 l-183 4 0 -582z m254 -66 c3 -9 6 -85 6 -169 0 -84
-3 -160 -6 -169 -3 -9 -15 -16 -25 -16 -18 0 -19 10 -19 185 0 175 1 185 19
185 10 0 22 -7 25 -16z"/>
<path d="M4502 1323 c3 -484 5 -541 20 -569 26 -48 65 -59 213 -59 151 0 180
9 210 70 19 38 20 64 23 568 l4 527 -106 0 -106 0 0 -494 c0 -420 -2 -495 -15
-506 -8 -6 -19 -9 -25 -5 -7 4 -10 169 -10 506 l0 499 -105 0 -106 0 3 -537z"/>
<path d="M5050 1281 l0 -581 175 0 c184 0 232 9 261 48 29 39 35 148 32 573
-3 369 -5 429 -20 461 -30 67 -48 73 -260 76 l-188 4 0 -581z m255 397 c3 -13
4 -201 3 -418 l-3 -395 -22 -3 -23 -3 0 420 c0 413 0 421 20 421 12 0 22 -9
25 -22z"/>
<path d="M3580 1175 l0 -85 145 0 145 0 0 85 0 85 -145 0 -145 0 0 -85z"/>
<path d="M2947 603 c-15 -4 -17 -14 -15 -66 l3 -62 75 0 75 0 3 61 c3 57 1 62
-20 68 -26 6 -94 6 -121 -1z"/>
<path d="M4150 540 l0 -71 68 3 67 3 3 61 c3 70 -1 74 -90 74 l-48 0 0 -70z"/>
<path d="M4330 540 c0 -63 2 -70 20 -70 15 0 20 7 20 25 0 14 6 25 13 25 8 0
24 -11 37 -25 13 -14 32 -25 42 -25 24 0 23 12 -4 29 -19 12 -20 14 -5 23 11
5 17 22 17 42 0 39 -14 46 -92 46 l-48 0 0 -70z"/>
<path d="M4526 597 c-13 -10 -17 -24 -14 -67 l3 -55 75 0 75 0 3 61 c3 57 1
62 -20 68 -39 10 -103 7 -122 -7z"/>
</g>
</svg>
